# xmcd CD database file
#
# Track frame offsets:
#	150
#	13422
#	26492
#	38952
#	50907
#	62750
#	72717
#	83667
#	96160
#	108467
#	119612
#	132025
#
# Disc length: 1922 seconds
#
# Revision: 6
# Processed by: cddbd v1.5.2PL0 Copyright (c) Steve Scherf et al.
# Submitted via: CDex 1.51
#
DISCID=af07800c
DTITLE=Hank Williams - The Best of Hank Williams
DYEAR=1994
DGENRE=Country
TTITLE0=Hey, Good Lookin'
TTITLE1=Jambalaya (On the Bayou)
TTITLE2=Move It On Over
TTITLE3=Long Gone Lonesome Blues
TTITLE4=Settin' the Woods On Fire
TTITLE5=Honky Tonk Blues
TTITLE6=Why Don't You Love Me
TTITLE7=Honky Tonkin'
TTITLE8=Lost Highway
TTITLE9=(I Heard That) Lonesome Whistle
TTITLE10=I Saw the Light
TTITLE11=Lovesick Blues
EXTD=Originally released as Hank Williams,\n"The Hits Volume One". YEAR: 1994
EXTT0=
EXTT1=
EXTT2=
EXTT3=
EXTT4=
EXTT5=
EXTT6=
EXTT7=
EXTT8=
EXTT9=
EXTT10=
EXTT11=
PLAYORDER=
